Coordinates
version=1
nRows=4
nColumns=107
inDegrees=yes

Units are S.I. units (second, meters, Newtons, ...)
If the header above contains a line with 'inDegrees', this indicates whether rotational values are in degrees (yes) or radians (no).

endheader
time	sternoclavicular_r2	sternoclavicular_r3	unrotscap_r3	unrotscap_r2	acromioclavicular_r2	acromioclavicular_r3	acromioclavicular_r1	unrothum_r1	unrothum_r3	unrothum_r2	elv_angle	shoulder_elv	shoulder1_r2	shoulder_rot	elbow_flexion	pro_sup	deviation	flexion	proximal_distal_r1	proximal_distal_r3	cmc_flexion	cmc_abduction	mp_flexion	ip_flexion	mcp2_flexion	mcp2_abduction	pm2_flexion	md2_flexion	mcp3_flexion	mcp3_abduction	pm3_flexion	md3_flexion	mcp4_flexion	mcp4_abduction	pm4_flexion	md4_flexion	mcp5_flexion	mcp5_abduction	pm5_flexion	md5_flexion	bicpt_tx	bicpt_ty	bicpt_tz	bicpt2_tx	bicpt2_ty	bicpt2_tz	ptpt_tx	ptpt_ty	ptpt_tz	FCUpt_tx	FCUpt_ty	FCUpt_tz	EDCpt_tx	EDCpt_ty	EDCpt_tz	APLpt_tx	APLpt_ty	APLpt_tz	FPLpt_tx	FPLpt_ty	FPLpt_tz	FPLpt2_tx	FPLpt2_ty	FPLpt2_tz	PEC1pt2_tx	PEC1pt2_ty	PEC1pt2_tz	PEC1pt3_tx	PEC1pt3_ty	PEC1pt3_tz	PEC2pt2_tx	PEC2pt2_ty	PEC2pt2_tz	PEC2pt3_tx	PEC2pt3_ty	PEC2pt3_tz	PEC3pt2_tx	PEC3pt2_ty	PEC3pt2_tz	PEC3pt3_tx	PEC3pt3_ty	PEC3pt3_tz	DELT2pt2a_tx	DELT2pt2a_ty	DELT2pt2a_tz	DELT2pt2_tx	DELT2pt2_ty	DELT2pt2_tz	LAT1pt2_tx	LAT1pt2_ty	LAT1pt2_tz	LAT1pt3_tx	LAT1pt3_ty	LAT1pt3_tz	LAT2pt2_tx	LAT2pt2_ty	LAT2pt2_tz	LAT2pt3_tx	LAT2pt3_ty	LAT2pt3_tz	LAT3pt2_tx	LAT3pt2_ty	LAT3pt2_tz	LAT3pt3_tx	LAT3pt3_ty	LAT3pt3_tz
      1.10000000	     -0.32336272	      0.13696119	     -0.13696119	      0.32336272	     -0.06547437	      0.52914086	      0.23784517	     -0.23784517	     -0.52914086	      0.06547437	     99.21890217	     76.55899909	     -1.73169652	    -23.43542164	     29.37963803	     41.87233449	      0.14235543	     -0.13055092	      0.17660926	     -0.06527546	     35.52043131	     -2.20980148	    -20.17290545	      4.81857230	     -6.44047261	      4.29771749	     20.34831629	    -20.67480011	     -1.63748321	     -4.47126490	      7.50539708	     10.54301040	     -6.65096648	     -6.91369258	     -7.32783112	     19.95119210	    -20.94068695	    -13.29328605	     -4.39278177	      5.00742724	      0.00087179	     -0.03096736	     -0.00484239	      0.01657389	     -0.01818112	     -0.00726770	      0.00445611	     -0.06690056	     -0.00342304	      0.00796928	     -0.18345562	     -0.00039839	     -0.00502467	      0.00145695	      0.00013203	      0.00011930	      0.00004772	      0.00023860	      0.00015270	      0.00045811	      0.00025769	     -0.00001282	     -0.00018707	     -0.00022448	      0.00250944	      0.00880429	      0.00612473	     -0.00820883	      0.01982029	     -0.01879950	      0.00250944	      0.00880429	      0.00612473	      0.00055293	      0.01837418	     -0.00965495	      0.00396275	      0.00489596	      0.01600374	      0.00000000	      0.00783923	      0.00000000	     -0.00718805	     -0.03321813	     -0.00646413	      0.01567975	     -0.00053972	     -0.00458152	     -0.00089319	      0.01497155	     -0.00612473	      0.00246690	      0.02160667	     -0.01786378	     -0.00599713	      0.01297251	     -0.00548673	     -0.01250465	      0.02739113	     -0.03066616	     -0.02347811	      0.01450369	     -0.00735818	     -0.01556701	      0.03164441	     -0.03832206
      1.13333333	     -0.32553463	      0.13788111	     -0.13788111	      0.32553463	     -0.06591414	      0.53269491	      0.23944269	     -0.23944269	     -0.53269491	      0.06591414	     98.72863828	     77.07321843	     -1.72313980	    -20.77568731	     29.30227890	     39.67502894	      0.16346599	     -0.12454725	      0.19997507	     -0.06227363	     35.65232791	     -2.11252954	    -19.00355097	      3.53193103	     -5.71192575	      4.23742218	     21.54601356	    -21.47931293	     -1.25091587	     -4.68511517	      7.79213034	     10.53913959	     -6.27808780	     -6.69609395	     -6.41123698	     21.17504338	    -20.37650952	    -13.25970351	     -3.39045995	      4.96208537	      0.00086923	     -0.03095849	     -0.00484096	      0.01657368	     -0.01816011	     -0.00750465	      0.00461846	     -0.06679558	     -0.00324604	      0.00774754	     -0.18350181	     -0.00038407	     -0.00476099	      0.00136704	      0.00014873	      0.00011444	      0.00004578	      0.00022888	      0.00014648	      0.00043944	      0.00024719	     -0.00001283	     -0.00018515	     -0.00022218	      0.00252629	      0.00886343	      0.00616586	     -0.00826397	      0.01995342	     -0.01892577	      0.00252629	      0.00886343	      0.00616586	      0.00055664	      0.01849759	     -0.00971980	      0.00398210	      0.00492884	      0.01605053	      0.00000000	      0.00794565	      0.00000000	     -0.00723632	     -0.03344124	     -0.00655247	      0.01421984	     -0.00045588	     -0.00357218	     -0.00089919	      0.01507211	     -0.00616586	      0.00248347	      0.02175179	     -0.01798377	     -0.00603741	      0.01305964	     -0.00552359	     -0.01258864	      0.02757511	     -0.03087213	     -0.02363581	      0.01460111	     -0.00740760	     -0.01567157	      0.03185696	     -0.03857946
      1.16666667	     -0.32627032	      0.13819271	     -0.13819271	      0.32627032	     -0.06606310	      0.53389876	      0.23998382	     -0.23998382	     -0.53389876	      0.06606310	     98.55301716	     77.24739822	     -1.72007464	    -20.06507160	     29.34426843	     38.90933221	      0.15695139	     -0.12997719	      0.19284232	     -0.06498860	     35.19231796	     -2.97599459	    -18.53411231	      2.94838392	     -5.86435649	      3.70485134	     22.44344717	    -21.42192866	     -1.99712899	     -5.34273959	      8.29646854	     11.42193343	     -6.48831128	     -7.05652094	     -6.03312345	     22.10081825	    -20.29572659	    -13.25671597	     -3.59259395	      5.01912240	      0.00087062	     -0.03096330	     -0.00484174	      0.01657101	     -0.01817151	     -0.00758563	      0.00467504	     -0.06675900	     -0.00318436	      0.00767061	     -0.18351758	     -0.00037823	     -0.00466911	      0.00133606	      0.00015393	      0.00011884	      0.00004753	      0.00023767	      0.00015211	      0.00045633	      0.00025669	     -0.00001277	     -0.00019177	     -0.00023012	      0.00253200	      0.00888346	      0.00617980	     -0.00828264	      0.01999851	     -0.01896854	      0.00253200	      0.00888346	      0.00617980	      0.00055790	      0.01853939	     -0.00974176	      0.00398863	      0.00493998	      0.01606624	      0.00000000	      0.00798187	      0.00000000	     -0.00725268	     -0.03351682	     -0.00658253	      0.01381378	     -0.00043394	     -0.00332081	     -0.00090122	      0.01510617	     -0.00617980	      0.00248908	      0.02180095	     -0.01802441	     -0.00605105	      0.01308915	     -0.00553607	     -0.01261709	      0.02763743	     -0.03094190	     -0.02368922	      0.01463410	     -0.00742434	     -0.01570698	      0.03192895	     -0.03866665
      1.20000000	     -0.32330766	      0.13693786	     -0.13693786	      0.32330766	     -0.06546322	      0.52905075	      0.23780467	     -0.23780467	     -0.52905075	      0.06546322	     99.17977330	     76.54596157	     -1.73101360	    -23.37586538	     29.50883566	     42.36430181	      0.15024687	     -0.13568334	      0.18542956	     -0.06784167	     36.08166010	     -2.78339185	    -21.31927263	      7.84410669	     -4.55927762	      3.47473010	     22.58779062	    -19.37900884	     -1.41672217	     -5.14591685	      8.99804300	     11.29539287	     -5.52760486	     -7.11420914	     -3.73610499	     19.18899133	    -18.23463084	    -13.16925766	     -3.87024001	      5.03447085	      0.00087606	     -0.03098216	     -0.00484478	      0.01657244	     -0.01821622	     -0.00721373	      0.00441976	     -0.06692407	     -0.00346267	      0.00801913	     -0.18344509	     -0.00040110	     -0.00508370	      0.00147728	      0.00012794	      0.00012341	      0.00004937	      0.00024683	      0.00015797	      0.00047391	      0.00026658	     -0.00001285	     -0.00017878	     -0.00021454	      0.00250901	      0.00880279	      0.00612368	     -0.00820744	      0.01981692	     -0.01879630	      0.00250901	      0.00880279	      0.00612368	      0.00055283	      0.01837105	     -0.00965330	      0.00396226	      0.00489512	      0.01600254	      0.00000000	      0.00783654	      0.00000000	     -0.00718682	     -0.03321247	     -0.00646190	      0.01564810	     -0.00053782	     -0.00455777	     -0.00089304	      0.01496900	     -0.00612368	      0.00246648	      0.02160299	     -0.01786074	     -0.00599611	      0.01297030	     -0.00548580	     -0.01250252	      0.02738647	     -0.03066094	     -0.02347411	      0.01450122	     -0.00735692	     -0.01556436	      0.03163902	     -0.03831554
